<?xml version="1.0" encoding="UTF-8" standalone="no"?>
<!-- Created with Inkscape (http://www.inkscape.org/) -->

<svg
   width="2048"
   height="2047.9999"
   viewBox="0 0 541.86665 541.86663"
   version="1.1"
   id="svg1"
   xml:space="preserve"
   xmlns="http://www.w3.org/2000/svg"
   xmlns:svg="http://www.w3.org/2000/svg"><defs
     id="defs1" /><g
     id="layer1"><g
       id="g1"><path
         style="display:inline;fill:#80b2ff;fill-opacity:1;stroke-width:1.31339"
         d="m 341.59554,259.12544 c -30.48883,-4.34052 -53.47259,-15.24983 -96.9927,-46.03783 -34.48625,-24.39704 -52.15498,-31.91056 -80.64096,-34.29207 -22.27738,-1.86246 -43.4164,1.93524 -63.32549,11.37665 -10.657665,5.05414 -11.476522,3.51126 -4.024785,-7.5835 6.929285,-10.31686 17.275515,-21.2501 28.520895,-30.13906 34.64188,-27.38283 83.42803,-33.93535 126.69716,-17.01681 15.64758,6.11832 23.71853,10.94195 53.52544,31.98968 21.34382,15.07166 30.38433,20.33642 44.5994,25.97264 26.82571,10.63628 51.00745,12.20028 76.77291,4.96548 14.31811,-4.02046 26.07736,-10.12455 40.76434,-21.16028 4.37905,-3.29042 8.44176,-5.88313 9.02824,-5.76158 3.89463,0.80718 -4.8263,18.96067 -16.93021,35.24195 -5.64225,7.58954 -19.94684,22.56766 -27.32284,28.60933 -14.15058,11.59073 -32.03652,20.00965 -49.2975,23.20434 -8.42425,1.55917 -32.29692,1.9233 -41.3739,0.63106 z"
         id="path12" /><path
         style="display:inline;fill:#1a75ff;fill-opacity:1;stroke-width:1.31339"
         d="m 315.07783,351.43099 c -1.14591,-0.1578 -4.8961,-0.62766 -8.33377,-1.04415 -29.7763,-3.60744 -62.43119,-17.60096 -96.53281,-41.36696 -30.90966,-21.54145 -48.94657,-31.7864 -65.92778,-37.44688 -35.38371,-11.79472 -72.912864,-8.70311 -101.509928,8.36226 -8.731023,5.21026 -9.999481,5.11498 -7.126437,-0.53536 6.726988,-13.22978 25.56201,-33.89698 40.66684,-44.62273 36.116345,-25.64574 84.304605,-28.14273 130.038245,-6.73824 8.9626,4.19473 21.37775,12.15134 39.97205,25.61727 29.95187,21.69108 53.56756,32.23295 82.99044,37.04634 30.38548,4.97088 56.55185,0.91342 92.07068,-14.27682 28.97634,-12.39222 43.57085,-16.27721 61.0623,-16.25447 13.29573,0.0173 29.4608,3.27355 28.62961,5.76711 -0.24722,0.74168 -0.98709,1.00622 -11.96207,4.27708 -14.39511,4.29015 -28.98733,13.07026 -57.31128,34.48409 -39.77973,30.07477 -58.98519,39.76384 -89.95593,45.38237 -5.93607,1.07687 -31.84432,2.02746 -36.77016,1.34909 z"
         id="path2" /><path
         style="display:inline;fill:#003d99;fill-opacity:1;stroke-width:1.31339"
         d="m 285.90963,427.10945 c -28.11919,-2.10848 -55.40092,-9.89256 -79.85911,-22.78557 -14.80024,-7.80186 -22.10534,-12.6719 -48.61981,-32.41303 -23.35055,-17.38548 -34.12364,-23.06128 -52.01805,-27.40573 -20.109987,-4.88234 -36.89301,-3.84031 -59.857389,3.71642 -14.189194,4.66915 -14.744512,3.13603 -3.242187,-8.95093 27.019894,-28.39329 64.291926,-39.25447 102.269726,-29.80173 20.14854,5.01502 34.55163,12.61878 65.97567,34.83025 24.30059,17.17641 37.68395,24.6207 56.56006,31.46069 19.94516,7.22737 34.10724,9.67898 55.94581,9.6848 21.43442,0.005 38.11277,-3.00574 59.37809,-10.72134 22.68004,-8.22891 31.26796,-10.50404 44.31637,-11.74038 11.90882,-1.12837 26.92274,0.9534 28.04932,3.88922 0.56337,1.46811 0.31602,1.57517 -8.59063,3.71796 -14.85003,3.57266 -26.94737,9.3134 -46.72185,22.17161 -30.69302,19.95793 -51.83127,28.37548 -82.85032,32.99218 -6.97452,1.03804 -24.60208,1.8155 -30.7357,1.35558 z"
         id="path1" /></g></g></svg>
